<?xml version="1.0" encoding="UTF-8" standalone="no"?>
<!DOCTYPE svg PUBLIC "-//W3C//DTD SVG 1.1//EN" "http://www.w3.org/Graphics/SVG/1.1/DTD/svg11.dtd">
<svg xmlns="http://www.w3.org/2000/svg" version="1.1" viewBox="0 0 676 664">
<path fill="#0cac84" d="
  M 346.36 369.62
  C 335.32 362.15 325.56 355.78 317.44 345.06
  Q 298.63 320.23 296.44 289.01
  Q 296.40 288.39 296.15 287.85
  Q 295.95 287.39 295.94 286.90
  C 295.67 274.41 296.47 261.48 295.27 249.09
  C 294.84 244.67 294.80 240.23 293.81 236.04
  C 290.72 222.99 285.74 204.71 274.06 197.76
  A 0.16 0.16 0.0 0 1 274.14 197.47
  Q 298.70 197.47 321.00 207.51
  C 357.97 224.16 392.17 245.76 397.32 289.02
  C 400.30 314.07 391.59 339.40 375.09 358.28
  A 0.38 0.38 0.0 0 1 374.42 357.97
  Q 378.66 329.41 369.64 303.02
  C 360.94 277.56 345.93 256.05 323.73 240.54
  Q 321.36 238.87 320.12 236.84
  Q 319.85 236.40 319.34 236.31
  L 317.90 236.05
  Q 317.36 235.96 317.14 236.46
  C 316.35 238.26 319.33 239.86 320.56 241.21
  Q 347.44 270.72 358.92 308.31
  C 365.78 330.76 361.10 354.52 354.04 376.64
  A 0.32 0.32 0.0 0 1 353.49 376.74
  C 351.31 374.03 349.32 371.62 346.36 369.62
  Z"
/>
<path fill="#fff" d="
  M 519.63 255.70
  C 525.33 256.69 534.58 262.91 531.71 269.71
  Q 530.10 273.52 527.52 276.63
  C 522.08 283.20 517.78 285.98 510.51 279.76
  C 501.02 271.64 490.79 263.86 479.48 259.03
  C 467.22 253.79 454.26 250.23 440.72 250.22
  C 434.73 250.21 427.20 249.64 421.43 251.14
  C 414.35 252.98 407.18 254.21 400.12 256.22
  Q 399.59 256.37 399.26 255.93
  Q 392.77 247.47 384.89 240.33
  A 0.87 0.87 0.0 0 1 385.05 238.92
  Q 391.05 235.56 397.50 232.90
  Q 402.01 231.04 408.76 229.51
  C 413.98 228.33 418.89 226.87 424.17 226.42
  C 432.40 225.72 440.03 225.16 448.42 226.07
  Q 452.53 226.51 456.64 227.00
  C 475.91 229.30 496.67 238.77 512.53 249.51
  Q 515.83 251.75 518.81 255.23
  Q 519.13 255.61 519.63 255.70
  Z"
/>
<path fill="#fff" d="
  M 295.50 357.03
  A 0.53 0.53 0.0 0 0 294.97 356.50
  L 185.47 356.50
  A 0.78 0.78 0.0 0 0 184.69 357.28
  L 184.94 467.90
  Q 184.94 468.75 184.10 468.75
  L 158.74 468.75
  Q 158.24 468.75 158.24 468.24
  L 158.28 227.02
  Q 158.28 226.25 159.05 226.25
  L 183.69 226.25
  A 0.76 0.76 0.0 0 1 184.45 227.01
  L 184.82 330.74
  A 0.79 0.78 89.6 0 0 185.60 331.52
  Q 239.34 331.93 293.00 331.70
  C 297.64 331.68 302.13 338.70 303.99 342.43
  Q 309.11 352.66 316.27 359.48
  Q 318.77 361.87 320.20 363.72
  Q 321.37 365.26 321.41 367.62
  Q 322.26 417.41 321.76 467.27
  A 1.24 1.24 0.0 0 1 320.52 468.50
  L 296.00 468.50
  A 0.50 0.50 0.0 0 1 295.50 468.00
  L 295.50 357.03
  Z"
/>
<path fill="#fff" d="
  M 350.94 428.81
  C 343.98 421.06 340.77 415.26 336.71 407.36
  C 330.20 394.65 329.65 382.68 329.34 368.73
  A 0.33 0.33 0.0 0 1 329.89 368.47
  Q 337.72 374.99 345.04 381.96
  C 347.70 384.50 352.37 386.09 354.08 388.94
  Q 356.87 393.58 358.82 399.18
  C 359.77 401.90 362.05 404.25 363.32 406.02
  C 384.17 435.26 421.08 449.72 456.37 442.83
  C 476.70 438.85 491.66 430.14 507.22 417.16
  C 510.19 414.69 512.63 411.94 514.75 408.97
  A 1.77 1.77 0.0 0 1 517.49 408.79
  L 534.23 426.73
  A 0.50 0.49 46.3 0 1 534.22 427.41
  C 530.12 431.64 526.32 434.79 520.98 438.46
  C 514.77 442.73 508.96 447.66 502.52 451.12
  C 486.65 459.66 469.12 466.53 451.75 467.55
  Q 451.21 467.58 450.74 467.86
  Q 450.31 468.12 449.81 468.15
  Q 403.02 471.49 366.08 443.43
  Q 359.75 438.62 350.94 428.81
  Z"
/>
</svg>
