<svg width="400" height="300" xmlns="http://www.w3.org/2000/svg" version="1.1">

 <g>
  <title>Layer 1</title>
  <path id="svg_1" d="m197.36,178.62c-11.04,-7.47 -20.8,-13.84 -28.92,-24.56q-18.81,-24.83 -21,-56.05q-0.04,-0.62 -0.29,-1.16q-0.2,-0.46 -0.21,-0.95c-0.27,-12.49 0.53,-25.42 -0.67,-37.81c-0.43,-4.42 -0.47,-8.86 -1.46,-13.05c-3.09,-13.05 -8.07,-31.33 -19.75,-38.28a0.16,0.16 0 0 1 0.08,-0.29q24.56,0 46.86,10.04c36.97,16.65 71.17,38.25 76.32,81.51c2.98,25.05 -5.73,50.38 -22.23,69.26a0.38,0.38 0 0 1 -0.67,-0.31q4.24,-28.56 -4.78,-54.95c-8.7,-25.46 -23.71,-46.97 -45.91,-62.48q-2.37,-1.67 -3.61,-3.7q-0.27,-0.44 -0.78,-0.53l-1.44,-0.26q-0.54,-0.09 -0.76,0.41c-0.79,1.8 2.19,3.4 3.42,4.75q26.88,29.51 38.36,67.1c6.86,22.45 2.18,46.21 -4.88,68.33a0.32,0.32 0 0 1 -0.55,0.1c-2.18,-2.71 -4.17,-5.12 -7.13,-7.12z" fill="#0cac84"/>
  <path id="svg_2" d="m370.63,64.7c5.7,0.99 14.95,7.21 12.08,14.01q-1.61,3.81 -4.19,6.92c-5.44,6.57 -9.74,9.35 -17.01,3.13c-9.49,-8.12 -19.72,-15.9 -31.03,-20.73c-12.26,-5.24 -25.22,-8.8 -38.76,-8.81c-5.99,-0.01 -13.52,-0.58 -19.29,0.92c-7.08,1.84 -14.25,3.07 -21.31,5.08q-0.53,0.15 -0.86,-0.29q-6.49,-8.46 -14.37,-15.6a0.87,0.87 0 0 1 0.16,-1.41q6,-3.36 12.45,-6.02q4.51,-1.86 11.26,-3.39c5.22,-1.18 10.13,-2.64 15.41,-3.09c8.23,-0.7 15.86,-1.26 24.25,-0.35q4.11,0.44 8.22,0.93c19.27,2.3 40.03,11.77 55.89,22.51q3.3,2.24 6.28,5.72q0.32,0.38 0.82,0.47z" fill="#fff"/>
  <path id="svg_3" d="m146.5,166.03a0.53,0.53 0 0 0 -0.53,-0.53l-109.5,0a0.78,0.78 0 0 0 -0.78,0.78l0.25,110.62q0,0.85 -0.84,0.85l-25.36,0q-0.5,0 -0.5,-0.51l0.04,-241.22q0,-0.77 0.77,-0.77l24.64,0a0.76,0.76 0 0 1 0.76,0.76l0.37,103.73a0.79,0.78 89.6 0 0 0.78,0.78q53.74,0.41 107.4,0.18c4.64,-0.02 9.13,7 10.99,10.73q5.12,10.23 12.28,17.05q2.5,2.39 3.93,4.24q1.17,1.54 1.21,3.9q0.85,49.79 0.35,99.65a1.24,1.24 0 0 1 -1.24,1.23l-24.52,0a0.5,0.5 0 0 1 -0.5,-0.5l0,-110.97z" fill="#fff"/>
  <path id="svg_4" d="m201.94,237.81c-6.96,-7.75 -10.17,-13.55 -14.23,-21.45c-6.51,-12.71 -7.06,-24.68 -7.37,-38.63a0.33,0.33 0 0 1 0.55,-0.26q7.83,6.52 15.15,13.49c2.66,2.54 7.33,4.13 9.04,6.98q2.79,4.64 4.74,10.24c0.95,2.72 3.23,5.07 4.5,6.84c20.85,29.24 57.76,43.7 93.05,36.81c20.33,-3.98 35.29,-12.69 50.85,-25.67c2.97,-2.47 5.41,-5.22 7.53,-8.19a1.77,1.77 0 0 1 2.74,-0.18l16.74,17.94a0.5,0.49 46.3 0 1 -0.01,0.68c-4.1,4.23 -7.9,7.38 -13.24,11.05c-6.21,4.27 -12.02,9.2 -18.46,12.66c-15.87,8.54 -33.4,15.41 -50.77,16.43q-0.54,0.03 -1.01,0.31q-0.43,0.26 -0.93,0.29q-46.79,3.34 -83.73,-24.72q-6.33,-4.81 -15.14,-14.62z" fill="#fff"/>
 </g>
</svg>